<svg width="155" height="41" viewBox="0 0 155 41" fill="none" xmlns="http://www.w3.org/2000/svg">
<path d="M26.0973 25.6642L21.3327 12.0741L16.568 25.6642H26.0973ZM28.9128 33.7316H13.7525L11.3161 40.8245H0L15.5393 0H27.1261L42.6654 40.8245H31.3493L28.9128 33.7316Z" fill="white"/>
<path d="M57.9208 18.7338H61.4402C65.3385 18.7338 67.2877 17.0373 67.2877 13.6442C67.2877 10.2512 65.3385 8.55473 61.4402 8.55473H57.9208V18.7338ZM57.9208 40.8245H47.3086V0H64.2015C68.7857 0 72.287 1.19116 74.7054 3.57349C77.1599 5.95582 78.3872 9.31274 78.3872 13.6442C78.3872 17.9758 77.1599 21.3327 74.7054 23.715C72.287 26.0973 68.7857 27.2885 64.2015 27.2885H57.9208V40.8245Z" fill="white"/>
<path d="M107.231 8.98788H94.616V15.81H106.528V24.7979H94.616V31.8366H107.231V40.8245H84.0038V0H107.231V8.98788Z" fill="white"/>
<path d="M126.578 19.0586L113.854 0H126.957L132.479 10.5581L139.302 0H152.404L138.923 19.0586L154.137 40.8245H141.197L133.021 27.5051L123.437 40.8245H110.605L126.578 19.0586Z" fill="white"/>
</svg>
